<mxfile host="app.diagrams.net" modified="2023-07-05T16:47:23.363Z" agent="Mozilla/5.0 (X11; Linux x86_64) AppleWebKit/537.36 (KHTML, like Gecko) Chrome/114.0.0.0 Safari/537.36" version="21.1.1" etag="KqjJoF87416sy1hPWGRi" type="github">
  <diagram name="PÃ¡gina-1" id="OYFTYtZQ6FP2234zXTJS">
    <mxGraphModel>
      <root>
        <mxCell id="0" />
        <mxCell id="1" parent="0" />
      </root>
    </mxGraphModel>
  </diagram>
</mxfile>
